# xmcd CD database file
#
# Track frame offsets:
#	150
#	8426
#	15546
#	25878
#	34673
#	44135
#	53306
#	63208
#	72803
#	82575
#	94480
#	104070
#	113395
#	122571
#	132523
#	141962
#	151827
#	160812
#	171830
#	181349
#	192026
#	202672
#	212428
#	222405
#	234409
#	243698
#	254202
#	262701
#	271796
#	280971
#	290901
#	301308
#	309909
#	318391
#	326266
#
# Disc length: 4499 seconds
#
# Revision: 0
# Processed by: cddbd v1.5.2PL0 Copyright (c) Steve Scherf et al.
# Submitted via: CDex 1.70beta2
#
DISCID=df119123
DTITLE=Great Rockabilly - Great Rockabilly - Just about as good as it gets! Vol.3 CD2
DYEAR=2009
DGENRE=Rockabilly
TTITLE0=Sammy Gowans - Rockin' By Myself
TTITLE1='Big' Al Downing  - Down On The Farm
TTITLE2=Hoyt Johnson - Eenie Meenie Minie Mo
TTITLE3=Thomas Wayne - You're The One That Done It
TTITLE4=Gene Criss - Hep Cat Baby
TTITLE5=Ricky Nelson - My Bucket's Got A Hole In It
TTITLE6=Jimmy C. Newman - Carry On
TTITLE7=Jimmy and Johnny - I Can't Find The Doorknob
TTITLE8=Gene Vincent and The Blue Caps - Crazy Legs
TTITLE9=Don Willis - Warrior Sam
TTITLE10=Carl Perkins - All Mama's Children
TTITLE11=Buddy Holly - Love Me
TTITLE12=Johnny Burnette and The Rock 'n' Roll Trio  - Eager Beaver Baby
TTITLE13=Wanda Jackson - Honey Bop
TTITLE14=Billy Brown - Meet Me In The Alley Sally
TTITLE15=Bill Lawrence - Hey Baby
TTITLE16=The Collins Kids - Hoy Hoy
TTITLE17=Kenny Parchman - Treat My Right
TTITLE18=Sid King and His Five Strings - Gonna Shake This Shack Tonight
TTITLE19=Hank Thompson and His Brazos Valley Boys - Rockin' In The Congo
TTITLE20=Benny Barnes and The Echoes - You Gotta Pay
TTITLE21=Andy Anderson and The Rolling Stones - Johnny Valentine
TTITLE22=Mac Curtis - Half Hearted Love
TTITLE23=Gene Simmons - Drinkin' Wine
TTITLE24=Johnny Garner - Didi Didi
TTITLE25=Bob Luman - Red Cadillac and A Black Moustache
TTITLE26=Eddie Cochran - Mean When I'm Mad
TTITLE27=Jimmy Lloyd - You're Gone Baby
TTITLE28=Glen Glenn - Would Ja
TTITLE29=Elvis Presley - You're A Heartbreaker
TTITLE30=Charlie Feathers - Too Much Alike
TTITLE31=Billy Lee Riley - I Want You Baby
TTITLE32=Jackie Dee - Buddy
TTITLE33=Jackie Walker - Only Teenagers Allowed
TTITLE34=Johnny Cash and The Tennessee Two - Big River
EXTD=YEAR: 2009
EXTT0=
EXTT1=
EXTT2=
EXTT3=
EXTT4=
EXTT5=
EXTT6=
EXTT7=
EXTT8=
EXTT9=
EXTT10=
EXTT11=
EXTT12=
EXTT13=
EXTT14=
EXTT15=
EXTT16=
EXTT17=
EXTT18=
EXTT19=
EXTT20=
EXTT21=
EXTT22=
EXTT23=
EXTT24=
EXTT25=
EXTT26=
EXTT27=
EXTT28=
EXTT29=
EXTT30=
EXTT31=
EXTT32=
EXTT33=
EXTT34=
PLAYORDER=
